# xmcd
#
# Track frame offsets:
#	150
#	15477
#	35430
#	55172
#
# Disc length: 969 seconds
#
# Revision: 1
# Processed by: cddbd v1.5PL3 Copyright (c) Steve Scherf et al.
# Submitted via: CDex 1.50Beta5
#
DISCID=2603c704
DTITLE=GOING UNDER GROUND - Cello
DYEAR=1998
DGENRE=Rock
TTITLE0=涙がこぼれそう
TTITLE1=夜行列車
TTITLE2=ROMANCE
TTITLE3=チェロ
EXTD=
EXTT0=
EXTT1=
EXTT2=
EXTT3=
PLAYORDER=
